<?xml version="1.0" encoding="utf-8"?>
<!-- Generator: Adobe Illustrator 24.1.1, SVG Export Plug-In . SVG Version: 6.00 Build 0)  -->
<svg version="1.1" id="Capa_1" xmlns="http://www.w3.org/2000/svg" xmlns:xlink="http://www.w3.org/1999/xlink" x="0px" y="0px"
	 viewBox="0 0 512 512" style="enable-background:new 0 0 512 512;" xml:space="preserve">
<style type="text/css">
	.st0{fill:#FFFFFF;}
</style>
<path class="st0" d="M278.94,0H233.4c-25.24,0-49.28,10.05-67.68,28.3c-18.55,18.39-28.77,42.59-28.77,68.12l-0.34,100.36
	c-0.01,4.14,3.33,7.51,7.48,7.53h0.02c4.13,0,7.49-3.34,7.5-7.48l0.19-57.71h137.11c9.74,0.14,9.73-15.15,0-15h-25.6V75.55
	c0-4.14-3.36-7.5-7.5-7.5c-4.14,0-7.5,3.36-7.5,7.5v48.58h-96.46l0.09-27.68c0-44.15,37.3-81.45,81.45-81.45h14.91v24.73
	c0,4.14,3.36,7.5,7.5,7.5c4.14,0,7.5-3.36,7.5-7.5V15h15.62c44.91,0,81.45,36.54,81.45,81.45v27.68h-35.65
	c-9.74-0.14-9.73,15.15,0,15h35.65v131.95c0,43.12-33.8,78.47-76.22,80.82v-26.37c0-15.16-12.34-27.5-27.5-27.5
	c-15.16,0-27.5,12.34-27.5,27.5v26.37c-42.97-2.32-77.21-37.68-77.21-80.82v-37.43c0-4.14-3.36-7.5-7.5-7.5
	c-4.14,0-7.5,3.36-7.5,7.5v37.43c0,51.41,40.97,93.5,92.21,95.84v51.72l-25.06-25.06c-10.72-10.72-28.17-10.72-38.9,0
	c-10.72,10.72-10.72,28.17,0,38.9L236.71,504c10.24,10.67,28.66,10.67,38.9,0l27.88-27.88c2.93-2.93,2.93-7.68,0-10.61
	c-2.93-2.93-7.68-2.93-10.61,0L265,493.39c-4.65,4.85-13.03,4.85-17.68,0l-71.51-71.51c-4.87-4.87-4.87-12.81,0-17.68
	c4.65-4.85,13.03-4.85,17.68,0l37.75,37.75c4.53,4.77,13.04,1.16,12.91-5.41V325.53c0-6.89,5.61-12.5,12.5-12.5
	c6.89,0,12.5,5.61,12.5,12.5v110.01c-0.13,6.57,8.39,10.18,12.91,5.41l36.75-36.75c4.87-4.88,12.81-4.87,17.68,0
	c4.87,4.87,4.87,12.81,0,17.68l-18.88,18.88c-2.93,2.93-2.93,7.68,0,10.61c2.93,2.93,7.68,2.93,10.61,0l18.88-18.88
	c10.72-10.72,10.72-28.17,0-38.9c-10.72-10.72-28.17-10.72-38.9,0l-24.06,24.06v-50.72c23.96-1.1,46.28-10.93,63.27-27.98
	c18.02-18.09,27.95-42.19,27.95-67.87V96.45C375.39,43.27,332.12,0,278.94,0L278.94,0z"/>
</svg>
